<svg viewBox="0 0 1200 600" xmlns="http://www.w3.org/2000/svg">
  <!-- Background gradient -->
  <defs>
    <linearGradient id="bgGradient" x1="0%" y1="0%" x2="0%" y2="100%">
      <stop offset="0%" style="stop-color:#0ea5e9;stop-opacity:1" />
      <stop offset="100%" style="stop-color:#1e40af;stop-opacity:1" />
    </linearGradient>
    
    <!-- Cloud gradient -->
    <linearGradient id="cloudGradient" x1="0%" y1="0%" x2="100%" y2="0%">
      <stop offset="0%" style="stop-color:#ffffff;stop-opacity:0.2" />
      <stop offset="100%" style="stop-color:#ffffff;stop-opacity:0.1" />
    </linearGradient>
    
    <!-- Glow effect -->
    <filter id="glow">
      <feGaussianBlur stdDeviation="3" result="coloredBlur"/>
      <feMerge>
        <feMergeNode in="coloredBlur"/>
        <feMergeNode in="SourceGraphic"/>
      </feMerge>
    </filter>
  </defs>
  
  <!-- Sky background -->
  <rect width="1200" height="600" fill="url(#bgGradient)"/>
  
  <!-- Clouds -->
  <ellipse cx="200" cy="100" rx="60" ry="30" fill="url(#cloudGradient)"/>
  <ellipse cx="250" cy="110" rx="80" ry="35" fill="url(#cloudGradient)"/>
  <ellipse cx="900" cy="150" rx="70" ry="35" fill="url(#cloudGradient)"/>
  <ellipse cx="960" cy="160" rx="60" ry="30" fill="url(#cloudGradient)"/>
  
  <!-- Wind turbine -->
  <g transform="translate(600, 200)">
    <!-- Tower -->
    <path d="M -15 150 L -5 0 L 5 0 L 15 150 Z" fill="#e5e7eb" stroke="#9ca3af" stroke-width="1"/>
    
    <!-- Nacelle -->
    <ellipse cx="0" cy="0" rx="20" ry="15" fill="#d1d5db"/>
    
    <!-- Hub -->
    <circle cx="0" cy="0" r="8" fill="#6b7280"/>
    
    <!-- Spinning blades -->
    <g>
      <animateTransform attributeName="transform" 
                        attributeType="XML" 
                        type="rotate" 
                        from="0 0 0" 
                        to="360 0 0" 
                        dur="4s" 
                        repeatCount="indefinite"/>
      <!-- Blade 1 -->
      <path d="M 0 -5 Q -8 -40 -5 -80 Q -3 -90 0 -90 Q 3 -90 5 -80 Q 8 -40 0 -5 Z" 
            fill="#f3f4f6" stroke="#d1d5db" stroke-width="1"/>
      <!-- Blade 2 -->
      <path d="M 0 -5 Q -8 -40 -5 -80 Q -3 -90 0 -90 Q 3 -90 5 -80 Q 8 -40 0 -5 Z" 
            fill="#f3f4f6" stroke="#d1d5db" stroke-width="1" transform="rotate(120)"/>
      <!-- Blade 3 -->
      <path d="M 0 -5 Q -8 -40 -5 -80 Q -3 -90 0 -90 Q 3 -90 5 -80 Q 8 -40 0 -5 Z" 
            fill="#f3f4f6" stroke="#d1d5db" stroke-width="1" transform="rotate(240)"/>
    </g>
    

  </g>
  
  <!-- Ground -->
  <path d="M 0 350 Q 300 340 600 350 T 1200 350 L 1200 600 L 0 600 Z" fill="#065f46" opacity="0.3"/>
  
  <!-- Main heading -->
  <text x="600" y="410" font-family="Arial, sans-serif" font-size="48" font-weight="bold" 
        text-anchor="middle" fill="#ffffff">Capacity Market Search</text>
  
  <!-- Maintenance message -->
  <text x="600" y="460" font-family="Arial, sans-serif" font-size="32" font-weight="500" 
        text-anchor="middle" fill="#fbbf24">Currently Under Maintenance</text>
  
  <!-- Info text -->
  <text x="600" y="510" font-family="Arial, sans-serif" font-size="18" 
        text-anchor="middle" fill="#e0e7ff">We're updating our systems to serve you better</text>
  <text x="600" y="535" font-family="Arial, sans-serif" font-size="18" 
        text-anchor="middle" fill="#e0e7ff">The UK's easiest way to explore Capacity Market auctions will be back soon</text>
  
  <!-- Progress dots -->
  <g transform="translate(600, 570)">
    <circle cx="-30" cy="0" r="5" fill="#60a5fa">
      <animate attributeName="opacity" values="0.3;1;0.3" dur="1.5s" repeatCount="indefinite"/>
    </circle>
    <circle cx="0" cy="0" r="5" fill="#60a5fa">
      <animate attributeName="opacity" values="0.3;1;0.3" dur="1.5s" begin="0.5s" repeatCount="indefinite"/>
    </circle>
    <circle cx="30" cy="0" r="5" fill="#60a5fa">
      <animate attributeName="opacity" values="0.3;1;0.3" dur="1.5s" begin="1s" repeatCount="indefinite"/>
    </circle>
  </g>
</svg>